<?xml version="1.0" encoding="utf-8"?>
<!-- Generator: Adobe Illustrator 22.0.1, SVG Export Plug-In . SVG Version: 6.00 Build 0)  -->
<svg version="1.1" id="Capa_1" xmlns="http://www.w3.org/2000/svg" xmlns:xlink="http://www.w3.org/1999/xlink" x="0px" y="0px"
	 viewBox="0 0 8.6 12" style="enable-background:new 0 0 8.6 12;" xml:space="preserve">
<style type="text/css">
	.st0{fill:#F56C6C;}
	.st1{fill:#DB4D4D;}
	.st2{fill:#E4DAD8;}
	.st3{fill:#F2EDEC;}
	.st4{fill:#FAD000;}
</style>
<path class="st0" d="M0.2,4.3c0-2.3,1.8-4.1,4.1-4.1s4.1,1.8,4.1,4.1c0,3.2-4.1,7.4-4.1,7.4S0.2,7.5,0.2,4.3z"/>
<path class="st1" d="M1,4.3c0-2.1,1.7-3.9,3.8-4.1c-0.1,0-0.3,0-0.4,0C2,0.2,0.2,2.1,0.2,4.3c0,3.2,4.1,7.4,4.1,7.4s0.1-0.1,0.4-0.4
	C3.6,10.2,1,6.9,1,4.3z"/>
<circle class="st2" cx="4.3" cy="4.3" r="3.2"/>
<circle class="st3" cx="4.3" cy="4.3" r="2.6"/>
<g>
	<path class="st4" d="M3.1,2.5L3.1,2.5L3,6.1c0,0.2,0.1,0.3,0.3,0.3l0,0c0.2,0,0.3-0.1,0.3-0.3V4.5h0.4V3.3C3.9,2.9,3.5,2.5,3.1,2.5
		z"/>
	<path class="st4" d="M4.7,3.4v0.2c0,0.2,0.1,0.3,0.3,0.4v2.1c0,0.2,0.1,0.3,0.3,0.3s0.3-0.1,0.3-0.3V3.9c0.2,0,0.3-0.2,0.3-0.4V3.4
		L4.7,3.4L4.7,3.4z"/>
</g>
<path d="M4.3,0.1C1.9,0.1,0,2,0,4.3c0,0.7,0.2,1.6,0.7,2.6C1,7.6,1.5,8.5,2.1,9.3c1,1.5,2,2.5,2.1,2.5c0.1,0.1,0.2,0.1,0.3,0
	c0,0,1-1.1,2.1-2.5c0.6-0.9,1.1-1.7,1.4-2.4c0.4-1,0.7-1.8,0.7-2.6C8.5,2,6.6,0.1,4.3,0.1z M6.2,9.1c-0.8,1.1-1.6,2-1.9,2.4
	C4,11.1,3.2,10.2,2.4,9.1c-1.3-1.9-2-3.5-2-4.8c0-2.2,1.8-3.9,3.9-3.9s3.9,1.8,3.9,3.9C8.2,5.6,7.5,7.2,6.2,9.1z"/>
<path d="M6.7,2C6.6,1.9,6.5,1.9,6.4,2C6.3,2,6.3,2.1,6.4,2.2C7,2.8,7.3,3.5,7.3,4.3c0,1.7-1.3,3-3,3s-3-1.3-3-3s1.3-3,3-3
	c0.5,0,1,0.1,1.4,0.4c0.1,0,0.2,0,0.2-0.1c0-0.1,0-0.2-0.1-0.2C5.4,1.1,4.8,1,4.3,1C2.4,1,0.9,2.5,0.9,4.3s1.5,3.3,3.3,3.3
	s3.3-1.5,3.3-3.3C7.6,3.4,7.3,2.6,6.7,2z"/>
<path d="M3,2.3c-0.1,0-0.2,0.1-0.2,0.2v3.6c0,0.2,0.2,0.5,0.5,0.5c0.2,0,0.5-0.2,0.5-0.5V4.7h0.2c0.1,0,0.2-0.1,0.2-0.2V3.3
	C4.1,2.8,3.6,2.3,3,2.3C3.1,2.3,3,2.3,3,2.3z M3.2,2.7c0.3,0,0.6,0.3,0.6,0.7v1H3.6c-0.1,0-0.2,0.1-0.2,0.2v1.6c0,0.1,0,0.1-0.1,0.1
	c-0.1,0-0.1,0-0.1-0.1L3.2,2.7L3.2,2.7z"/>
<path d="M5.2,6.5c0.2,0,0.5-0.2,0.5-0.5v-2C5.8,4,6,3.8,6,3.6V2.5c0-0.1-0.1-0.2-0.2-0.2c-0.1,0-0.2,0.1-0.2,0.2v0.8H5.4V2.5
	c0-0.1-0.1-0.2-0.2-0.2C5.1,2.3,5,2.4,5,2.5v0.8H4.8V2.5c0-0.1-0.1-0.2-0.2-0.2c-0.1,0-0.2,0.1-0.2,0.2v1.1c0,0.2,0.1,0.4,0.3,0.5v2
	C4.8,6.3,5,6.5,5.2,6.5z M5.6,3.6L5.6,3.6c0,0.1-0.1,0.2-0.1,0.2c-0.1,0-0.1,0.1-0.1,0.2v2.1c0,0.1,0,0.1-0.1,0.1
	c-0.1,0-0.1,0-0.1-0.1V3.9c0-0.1-0.1-0.1-0.1-0.2c-0.1,0-0.1-0.1-0.1-0.2v0L5.6,3.6L5.6,3.6L5.6,3.6z"/>
</svg>
